<?xml version="1.0" encoding="UTF-8" standalone="no"?>
<svg
   xmlns:dc="http://purl.org/dc/elements/1.1/"
   xmlns:cc="http://creativecommons.org/ns#"
   xmlns:rdf="http://www.w3.org/1999/02/22-rdf-syntax-ns#"
   xmlns:svg="http://www.w3.org/2000/svg"
   xmlns="http://www.w3.org/2000/svg"
   xmlns:sodipodi="http://sodipodi.sourceforge.net/DTD/sodipodi-0.dtd"
   xmlns:inkscape="http://www.inkscape.org/namespaces/inkscape"
   id="Capa_1"
   enable-background="new 0 0 512 512"
   height="512"
   viewBox="0 0 512 512"
   width="512"
   version="1.1"
   sodipodi:docname="ice-cube.svg"
   inkscape:version="1.0.1 (3bc2e813f5, 2020-09-07)">
  <metadata
     id="metadata31">
    <rdf:RDF>
      <cc:Work
         rdf:about="">
        <dc:format>image/svg+xml</dc:format>
        <dc:type
           rdf:resource="http://purl.org/dc/dcmitype/StillImage" />
      </cc:Work>
    </rdf:RDF>
  </metadata>
  <defs
     id="defs29" />
  <sodipodi:namedview
     pagecolor="#ffffff"
     bordercolor="#666666"
     borderopacity="1"
     objecttolerance="10"
     gridtolerance="10"
     guidetolerance="10"
     inkscape:pageopacity="0"
     inkscape:pageshadow="2"
     inkscape:window-width="1211"
     inkscape:window-height="705"
     id="namedview27"
     showgrid="false"
     inkscape:zoom="0.59731188"
     inkscape:cx="239.11898"
     inkscape:cy="337.67978"
     inkscape:window-x="0"
     inkscape:window-y="24"
     inkscape:window-maximized="0"
     inkscape:current-layer="Capa_1"
     inkscape:document-rotation="0" />
  <g
     id="g24"
     transform="matrix(0.88534655,0,0,0.88534655,29.351339,29.351325)">
    <path
       d="M 2.184,112.6 C 0.777,115.037 0,117.838 0,120.75 v 161.933 c 0,5.823 3.107,11.204 8.15,14.116 l 140.238,80.966 c 2.522,1.456 5.336,2.184 8.15,2.184 l 21.858,-190.852 z"
       fill="#b9e4ef"
       id="path2"
       style="fill:#f9f9f9" />
    <path
       d="m 156.537,168.359 v 211.59 c 2.814,0 5.628,-0.728 8.15,-2.184 l 79.028,-45.627 69.36,-113.847 V 120.75 c 0,-2.912 -0.777,-5.713 -2.184,-8.15 z"
       fill="#93d8e4"
       id="path4"
       style="fill:#ececec" />
    <path
       d="m 310.891,112.6 c -1.407,-2.437 -3.444,-4.51 -5.966,-5.966 L 164.687,25.668 c -5.043,-2.911 -11.256,-2.911 -16.299,0 L 8.15,106.634 c -2.522,1.456 -4.559,3.529 -5.966,5.966 l 154.354,89.116 z"
       fill="#daf1f4"
       id="path6"
       style="fill:#ffffff" />
    <path
       d="m 245.586,259.416 c -1.206,2.089 -1.871,4.489 -1.871,6.984 v 138.766 c 0,4.99 2.662,9.601 6.984,12.096 l 120.175,69.383 c 2.161,1.247 4.572,1.871 6.984,1.871 L 389.37,324.27 Z"
       fill="#b9e4ef"
       id="path8"
       style="fill:#f9f9f9" />
    <path
       d="m 377.858,326.861 v 161.655 c 2.411,0 4.823,-0.624 6.984,-1.871 l 120.175,-69.383 c 4.322,-2.495 6.984,-7.106 6.984,-12.096 V 266.4 c 0,-2.495 -0.665,-4.895 -1.871,-6.984 z"
       fill="#93d8e4"
       id="path14"
       style="fill:#ececec" />
    <path
       d="m 510.129,259.416 c -1.206,-2.088 -2.952,-3.865 -5.113,-5.112 L 384.841,184.92 c -4.321,-2.495 -9.646,-2.495 -13.968,0 l -120.175,69.383 c -2.161,1.247 -3.907,3.024 -5.112,5.112 l 132.271,76.367 z"
       fill="#daf1f4"
       id="path16"
       style="fill:#ffffff" />
    <g
       fill="#ecf9f9"
       id="g22" />
  </g>
</svg>
